{
  "asset": {
    "version": "2.0",
    "generator": "Hand-authored Eden test asset"
  },
  "scene": 0,
  "scenes": [
    { "nodes": [0] }
  ],
  "nodes": [
    { "name": "Root", "translation": [0.0, -1.3, 0.0], "children": [1] },
    { "name": "CheckerQuad", "mesh": 0, "translation": [0.0, 0.0, 0.0], "scale": [1.4, 1.4, 1.0] }
  ],
  "meshes": [
    {
      "name": "Quad",
      "primitives": [
        {
          "attributes": { "POSITION": 0, "NORMAL": 3, "TEXCOORD_0": 1 },
          "indices": 2,
          "material": 0
        }
      ]
    }
  ],
  "materials": [
    {
      "name": "CheckerMaterial",
      "pbrMetallicRoughness": {
        "baseColorTexture": { "index": 0 },
        "baseColorFactor": [1.0, 1.0, 1.0, 1.0],
        "metallicFactor": 0.0,
        "roughnessFactor": 0.8
      }
    }
  ],
  "textures": [
    { "sampler": 0, "source": 0 }
  ],
  "samplers": [
    { "magFilter": 9729, "minFilter": 9729, "wrapS": 10497, "wrapT": 10497 }
  ],
  "images": [
    { "uri": "checker.png" }
  ],
  "buffers": [
    { "uri": "quad.bin", "byteLength": 140 }
  ],
  "bufferViews": [
    { "buffer": 0, "byteOffset": 0, "byteLength": 48, "target": 34962 },
    { "buffer": 0, "byteOffset": 48, "byteLength": 32, "target": 34962 },
    { "buffer": 0, "byteOffset": 80, "byteLength": 12, "target": 34963 },
    { "buffer": 0, "byteOffset": 92, "byteLength": 48, "target": 34962 }
  ],
  "accessors": [
    {
      "bufferView": 0,
      "componentType": 5126,
      "count": 4,
      "type": "VEC3",
      "min": [-0.5, -0.5, 0.0],
      "max": [0.5, 0.5, 0.0]
    },
    {
      "bufferView": 1,
      "componentType": 5126,
      "count": 4,
      "type": "VEC2"
    },
    {
      "bufferView": 2,
      "componentType": 5123,
      "count": 6,
      "type": "SCALAR"
    },
    {
      "bufferView": 3,
      "componentType": 5126,
      "count": 4,
      "type": "VEC3",
      "min": [0.0, 0.0, 1.0],
      "max": [0.0, 0.0, 1.0]
    }
  ]
}
